<svg width="160" height="160" viewBox="0 0 160 160" fill="none" xmlns="http://www.w3.org/2000/svg">
<path d="M13.2214 107.417L56.5548 85.75C69.8881 79.0833 74.0548 74.9166 74.0548 62.4166M13.2214 114.083L22.0548 109.667C22.6381 109.417 23.2214 109.833 23.2214 110.417V144.917C23.2214 145.917 24.0548 146.667 24.9714 146.583C33.3048 145.833 39.8881 140.167 39.8881 133.333C39.8881 131.333 38.0548 129.667 35.9714 130.083C34.3881 130.333 33.2214 131.833 33.2214 133.5C33.3048 140.333 39.8048 145.917 48.0548 146.583C49.0548 146.667 49.8881 145.917 49.8881 144.917V97.3333C49.8881 96.4166 50.3881 95.5 51.3048 95.0833L58.2214 91.5833C73.2214 84.0833 78.3881 83.5833 88.3881 91.0833M146.555 65.75L103.221 44.0833C89.8881 37.4166 85.7214 33.25 85.7214 20.75M146.555 72.4166L137.721 68C137.138 67.75 136.555 68.1666 136.555 68.75V103.25C136.555 104.25 135.721 105 134.805 104.917C126.471 104.167 119.888 98.5 119.888 91.6666C119.888 89.6666 121.721 88 123.805 88.4166C125.388 88.6666 126.555 90.1666 126.555 91.8333C126.471 98.6666 119.971 104.25 111.721 104.917C110.721 105 109.888 104.25 109.888 103.25V55.5833C109.888 54.6666 109.388 53.75 108.471 53.3333L101.555 49.8333C86.5548 42.3333 81.3881 41.8333 71.3881 49.3333M94.9105 69.9259C99.9736 80.0521 100.341 90.1298 95.7303 92.4349C91.12 94.7401 83.2781 88.3999 78.215 78.2736C73.1519 68.1474 72.7848 58.0697 77.3951 55.7645C82.0055 53.4594 89.8473 59.7996 94.9105 69.9259ZM82.4236 14.1121C87.0339 16.4173 86.6669 26.4949 81.6037 36.6212C76.5406 46.7474 68.6987 53.0877 64.0884 50.7825C59.4781 48.4773 59.8451 38.3997 64.9083 28.2734C69.9714 18.1472 77.8133 11.8069 82.4236 14.1121Z" stroke="url(#paint0_linear)" stroke-width="2.5" stroke-miterlimit="10" stroke-linecap="round" stroke-linejoin="round"/>
<defs>
<linearGradient id="paint0_linear" x1="79.8881" y1="13.6389" x2="79.8881" y2="146.59" gradientUnits="userSpaceOnUse">
<stop stop-color="#93C437"/>
<stop offset="1" stop-color="#279BE8"/>
</linearGradient>
</defs>
</svg>
